<svg xmlns="http://www.w3.org/2000/svg" viewBox="0 0 16 16" width="16" height="16" role="img" aria-label="Funes memorioso symbolic">
  <g fill="none" stroke="currentColor" stroke-width="1.1" stroke-linejoin="round">
    <path d="M6.6 14.6 V11.7
      C4.8 10.9 3.8 9.2 3.8 7.2
      C3.8 4.5 5.9 2.4 8.7 2.4
      C10.9 2.4 12.5 3.7 13 5.5
      L13.5 7.3 C13.6 7.8 13.3 8.1 12.9 8.2 L12.3 8.3
      V9.6 C12.3 10.2 11.9 10.6 11.3 10.6 H10.5
      V12.6 C10.5 13.8 9.8 14.6 8.6 14.6 Z"/>
    <path d="M8 4.8 A2.5 2.5 0 1 1 5.5 7.3" stroke-width="1.2"/>
  </g>
  <circle cx="8" cy="7.3" r="1.05" fill="currentColor"/>
</svg>
